<mxfile host="app.diagrams.net" modified="2023-07-08T02:35:47.831Z" agent="Mozilla/5.0 (Windows NT 10.0; Win64; x64) AppleWebKit/537.36 (KHTML, like Gecko) Chrome/114.0.0.0 Safari/537.36" etag="fcPjrBlDY_PuopKKqPhN" version="21.6.1" type="device">
  <diagram name="Page-1" id="nLk0donjMaA9mDtRtThm">
    <mxGraphModel dx="880" dy="452" grid="1" gridSize="10" guides="1" tooltips="1" connect="1" arrows="1" fold="1" page="1" pageScale="1" pageWidth="850" pageHeight="1100" math="0" shadow="0">
      <root>
        <mxCell id="0" />
        <mxCell id="1" parent="0" />
        <mxCell id="IdqDkOQYwUtYCvJa5ZuF-16" style="edgeStyle=orthogonalEdgeStyle;rounded=0;orthogonalLoop=1;jettySize=auto;html=1;" edge="1" parent="1" source="IdqDkOQYwUtYCvJa5ZuF-1" target="IdqDkOQYwUtYCvJa5ZuF-3">
          <mxGeometry relative="1" as="geometry">
            <Array as="points">
              <mxPoint x="420" y="70" />
              <mxPoint x="760" y="70" />
            </Array>
          </mxGeometry>
        </mxCell>
        <mxCell id="IdqDkOQYwUtYCvJa5ZuF-17" value="Student Info" style="edgeLabel;html=1;align=center;verticalAlign=middle;resizable=0;points=[];" vertex="1" connectable="0" parent="IdqDkOQYwUtYCvJa5ZuF-16">
          <mxGeometry x="-0.1981" relative="1" as="geometry">
            <mxPoint as="offset" />
          </mxGeometry>
        </mxCell>
        <mxCell id="IdqDkOQYwUtYCvJa5ZuF-18" style="edgeStyle=orthogonalEdgeStyle;rounded=0;orthogonalLoop=1;jettySize=auto;html=1;" edge="1" parent="1" source="IdqDkOQYwUtYCvJa5ZuF-1" target="IdqDkOQYwUtYCvJa5ZuF-3">
          <mxGeometry relative="1" as="geometry">
            <Array as="points">
              <mxPoint x="750" y="140" />
            </Array>
          </mxGeometry>
        </mxCell>
        <mxCell id="IdqDkOQYwUtYCvJa5ZuF-19" value="Facilitator Info" style="edgeLabel;html=1;align=center;verticalAlign=middle;resizable=0;points=[];" vertex="1" connectable="0" parent="IdqDkOQYwUtYCvJa5ZuF-18">
          <mxGeometry x="-0.3416" y="4" relative="1" as="geometry">
            <mxPoint y="4" as="offset" />
          </mxGeometry>
        </mxCell>
        <mxCell id="IdqDkOQYwUtYCvJa5ZuF-1" value="Certificate Printing System" style="shape=ellipse;html=1;dashed=0;whiteSpace=wrap;aspect=fixed;perimeter=ellipsePerimeter;fillColor=#f8cecc;strokeColor=#b85450;" vertex="1" parent="1">
          <mxGeometry x="280" y="130" width="220" height="220" as="geometry" />
        </mxCell>
        <mxCell id="IdqDkOQYwUtYCvJa5ZuF-4" style="edgeStyle=orthogonalEdgeStyle;rounded=0;orthogonalLoop=1;jettySize=auto;html=1;" edge="1" parent="1" source="IdqDkOQYwUtYCvJa5ZuF-2" target="IdqDkOQYwUtYCvJa5ZuF-1">
          <mxGeometry relative="1" as="geometry">
            <Array as="points">
              <mxPoint x="80" y="70" />
              <mxPoint x="390" y="70" />
            </Array>
          </mxGeometry>
        </mxCell>
        <mxCell id="IdqDkOQYwUtYCvJa5ZuF-5" value="Student Info" style="edgeLabel;html=1;align=center;verticalAlign=middle;resizable=0;points=[];" vertex="1" connectable="0" parent="IdqDkOQYwUtYCvJa5ZuF-4">
          <mxGeometry x="-0.1867" y="2" relative="1" as="geometry">
            <mxPoint x="46" as="offset" />
          </mxGeometry>
        </mxCell>
        <mxCell id="IdqDkOQYwUtYCvJa5ZuF-6" style="edgeStyle=orthogonalEdgeStyle;rounded=0;orthogonalLoop=1;jettySize=auto;html=1;" edge="1" parent="1" source="IdqDkOQYwUtYCvJa5ZuF-2" target="IdqDkOQYwUtYCvJa5ZuF-1">
          <mxGeometry relative="1" as="geometry">
            <Array as="points">
              <mxPoint x="100" y="110" />
              <mxPoint x="340" y="110" />
            </Array>
          </mxGeometry>
        </mxCell>
        <mxCell id="IdqDkOQYwUtYCvJa5ZuF-7" value="Facilitator Info" style="edgeLabel;html=1;align=center;verticalAlign=middle;resizable=0;points=[];" vertex="1" connectable="0" parent="IdqDkOQYwUtYCvJa5ZuF-6">
          <mxGeometry x="-0.2667" relative="1" as="geometry">
            <mxPoint x="57" as="offset" />
          </mxGeometry>
        </mxCell>
        <mxCell id="IdqDkOQYwUtYCvJa5ZuF-8" style="edgeStyle=orthogonalEdgeStyle;rounded=0;orthogonalLoop=1;jettySize=auto;html=1;" edge="1" parent="1" source="IdqDkOQYwUtYCvJa5ZuF-2" target="IdqDkOQYwUtYCvJa5ZuF-1">
          <mxGeometry relative="1" as="geometry">
            <mxPoint x="140" y="250" as="sourcePoint" />
            <mxPoint x="290" y="250" as="targetPoint" />
            <Array as="points">
              <mxPoint x="120" y="150" />
            </Array>
          </mxGeometry>
        </mxCell>
        <mxCell id="IdqDkOQYwUtYCvJa5ZuF-9" value="School Detail" style="edgeLabel;html=1;align=center;verticalAlign=middle;resizable=0;points=[];" vertex="1" connectable="0" parent="IdqDkOQYwUtYCvJa5ZuF-8">
          <mxGeometry x="0.1467" y="-3" relative="1" as="geometry">
            <mxPoint x="-31" y="-3" as="offset" />
          </mxGeometry>
        </mxCell>
        <mxCell id="IdqDkOQYwUtYCvJa5ZuF-2" value="Admin" style="html=1;dashed=0;whiteSpace=wrap;fillColor=#ffe6cc;strokeColor=#d79b00;" vertex="1" parent="1">
          <mxGeometry x="30" y="215" width="100" height="50" as="geometry" />
        </mxCell>
        <mxCell id="IdqDkOQYwUtYCvJa5ZuF-3" value="Facilitator&amp;nbsp;" style="html=1;dashed=0;whiteSpace=wrap;fillColor=#ffe6cc;strokeColor=#d79b00;" vertex="1" parent="1">
          <mxGeometry x="710" y="200" width="100" height="50" as="geometry" />
        </mxCell>
        <mxCell id="IdqDkOQYwUtYCvJa5ZuF-10" style="edgeStyle=orthogonalEdgeStyle;rounded=0;orthogonalLoop=1;jettySize=auto;html=1;" edge="1" parent="1" source="IdqDkOQYwUtYCvJa5ZuF-1" target="IdqDkOQYwUtYCvJa5ZuF-2">
          <mxGeometry relative="1" as="geometry">
            <mxPoint x="400" y="140" as="sourcePoint" />
            <mxPoint x="90" y="225" as="targetPoint" />
            <Array as="points">
              <mxPoint x="400" y="420" />
              <mxPoint x="90" y="420" />
            </Array>
          </mxGeometry>
        </mxCell>
        <mxCell id="IdqDkOQYwUtYCvJa5ZuF-11" value="Student Info" style="edgeLabel;html=1;align=center;verticalAlign=middle;resizable=0;points=[];" vertex="1" connectable="0" parent="IdqDkOQYwUtYCvJa5ZuF-10">
          <mxGeometry x="-0.1867" y="2" relative="1" as="geometry">
            <mxPoint x="-22" y="-2" as="offset" />
          </mxGeometry>
        </mxCell>
        <mxCell id="IdqDkOQYwUtYCvJa5ZuF-12" style="edgeStyle=orthogonalEdgeStyle;rounded=0;orthogonalLoop=1;jettySize=auto;html=1;" edge="1" parent="1" source="IdqDkOQYwUtYCvJa5ZuF-1" target="IdqDkOQYwUtYCvJa5ZuF-2">
          <mxGeometry relative="1" as="geometry">
            <mxPoint x="350" y="152" as="sourcePoint" />
            <mxPoint x="110" y="225" as="targetPoint" />
            <Array as="points">
              <mxPoint x="350" y="370" />
              <mxPoint x="110" y="370" />
            </Array>
          </mxGeometry>
        </mxCell>
        <mxCell id="IdqDkOQYwUtYCvJa5ZuF-13" value="Facilitator Info" style="edgeLabel;html=1;align=center;verticalAlign=middle;resizable=0;points=[];" vertex="1" connectable="0" parent="IdqDkOQYwUtYCvJa5ZuF-12">
          <mxGeometry x="-0.2667" relative="1" as="geometry">
            <mxPoint x="-11" as="offset" />
          </mxGeometry>
        </mxCell>
        <mxCell id="IdqDkOQYwUtYCvJa5ZuF-14" style="edgeStyle=orthogonalEdgeStyle;rounded=0;orthogonalLoop=1;jettySize=auto;html=1;" edge="1" parent="1" source="IdqDkOQYwUtYCvJa5ZuF-1" target="IdqDkOQYwUtYCvJa5ZuF-2">
          <mxGeometry relative="1" as="geometry">
            <mxPoint x="360" y="352" as="sourcePoint" />
            <mxPoint x="120" y="275" as="targetPoint" />
            <Array as="points">
              <mxPoint x="120" y="330" />
            </Array>
          </mxGeometry>
        </mxCell>
        <mxCell id="IdqDkOQYwUtYCvJa5ZuF-15" value="Certificate Details" style="edgeLabel;html=1;align=center;verticalAlign=middle;resizable=0;points=[];" vertex="1" connectable="0" parent="IdqDkOQYwUtYCvJa5ZuF-14">
          <mxGeometry x="-0.2667" relative="1" as="geometry">
            <mxPoint x="-11" as="offset" />
          </mxGeometry>
        </mxCell>
        <mxCell id="IdqDkOQYwUtYCvJa5ZuF-20" style="edgeStyle=orthogonalEdgeStyle;rounded=0;orthogonalLoop=1;jettySize=auto;html=1;" edge="1" parent="1" source="IdqDkOQYwUtYCvJa5ZuF-3" target="IdqDkOQYwUtYCvJa5ZuF-1">
          <mxGeometry relative="1" as="geometry">
            <mxPoint x="770" y="210" as="sourcePoint" />
            <mxPoint x="430" y="144" as="targetPoint" />
            <Array as="points">
              <mxPoint x="770" y="340" />
            </Array>
          </mxGeometry>
        </mxCell>
        <mxCell id="IdqDkOQYwUtYCvJa5ZuF-21" value="Student Info" style="edgeLabel;html=1;align=center;verticalAlign=middle;resizable=0;points=[];" vertex="1" connectable="0" parent="IdqDkOQYwUtYCvJa5ZuF-20">
          <mxGeometry x="-0.1981" relative="1" as="geometry">
            <mxPoint x="-60" as="offset" />
          </mxGeometry>
        </mxCell>
        <mxCell id="IdqDkOQYwUtYCvJa5ZuF-22" style="edgeStyle=orthogonalEdgeStyle;rounded=0;orthogonalLoop=1;jettySize=auto;html=1;" edge="1" parent="1" source="IdqDkOQYwUtYCvJa5ZuF-3" target="IdqDkOQYwUtYCvJa5ZuF-1">
          <mxGeometry relative="1" as="geometry">
            <mxPoint x="780" y="260" as="sourcePoint" />
            <mxPoint x="446" y="350" as="targetPoint" />
            <Array as="points">
              <mxPoint x="750" y="300" />
            </Array>
          </mxGeometry>
        </mxCell>
        <mxCell id="IdqDkOQYwUtYCvJa5ZuF-23" value="Facilitator Info" style="edgeLabel;html=1;align=center;verticalAlign=middle;resizable=0;points=[];" vertex="1" connectable="0" parent="IdqDkOQYwUtYCvJa5ZuF-22">
          <mxGeometry x="-0.1981" relative="1" as="geometry">
            <mxPoint x="-60" as="offset" />
          </mxGeometry>
        </mxCell>
      </root>
    </mxGraphModel>
  </diagram>
</mxfile>
